# xmcd
#
# Track frame offsets:
#	150
#	13740
#	26422
#	39236
#	61754
#	74965
#	89274
#	103937
#	119913
#	132648
#	146504
#	162554
#	178700
#	193357
#	209779
#	227377
#	241096
#	262330
#	276327
#
# Disc length: 3864 seconds
#
# Revision: 1
# Processed by: cddbd v1.5.2PL0 Copyright (c) Steve Scherf et al.
# Submitted via: audiograbber 1.83.01
#
DISCID=310f1613
DTITLE=Vern Gosdin - Warning-Contains Country Music
DYEAR=1996
DGENRE=Country
TTITLE0=Hangin' On
TTITLE1=Yesterday's Gone
TTITLE2=Till The End
TTITLE3=The First Time Ever I Saw Your Face
TTITLE4=Never My Love
TTITLE5=Warning-Contains Country Musicarah's Eyes
TTITLE6=Today My World Slipped Away
TTITLE7=If You're Gonna Do Me Wrong (do It Ri
TTITLE8=What Would Your Memories Do
TTITLE9=You Never Crossed My Mind
TTITLE10=If Jesus Comes Tomorrow (what Then)
TTITLE11=Time Stood Still
TTITLE12=Was It Just The Wine
TTITLE13=Do You Believe Me Now
TTITLE14=Chiseled In Stone
TTITLE15=Is It Raining At Your House
TTITLE16=Alone
TTITLE17=The Number (he Gave Me Was Mine)
TTITLE18=Dream Of Me
EXTD=
EXTT0=
EXTT1=
EXTT2=
EXTT3=
EXTT4=
EXTT5=
EXTT6=
EXTT7=
EXTT8=
EXTT9=
EXTT10=
EXTT11=
EXTT12=
EXTT13=
EXTT14=
EXTT15=
EXTT16=
EXTT17=
EXTT18=
PLAYORDER=
